<?xml version="1.0" standalone="no"?>
<!DOCTYPE svg PUBLIC "-//W3C//DTD SVG 20010904//EN"
 "http://www.w3.org/TR/2001/REC-SVG-20010904/DTD/svg10.dtd">
<svg version="1.0" xmlns="http://www.w3.org/2000/svg"
 width="512.000000pt" height="512.000000pt" viewBox="0 0 512.000000 512.000000"
 preserveAspectRatio="xMidYMid meet">
<metadata>
Created by potrace 1.14, written by Peter Selinger 2001-2017
</metadata>
<g transform="translate(0.000000,512.000000) scale(0.100000,-0.100000)"
fill="#000000" stroke="none">
<path d="M2678 5115 c-2 -1 -51 -5 -110 -9 -59 -3 -113 -8 -120 -11 -7 -2 -42
-6 -78 -10 -36 -3 -74 -8 -85 -10 -21 -5 -64 -11 -130 -21 -63 -9 -326 -71
-407 -96 -40 -12 -75 -23 -78 -23 -11 -2 -87 -28 -115 -40 -16 -7 -60 -24 -96
-38 -366 -141 -698 -382 -906 -656 -99 -131 -196 -318 -234 -451 -7 -25 -14
-49 -15 -55 -31 -101 -47 -226 -48 -384 -5 -387 128 -732 378 -984 159 -161
366 -293 585 -373 36 -14 75 -28 86 -33 11 -5 38 -14 60 -20 22 -5 51 -14 65
-18 14 -4 30 -8 35 -9 6 -1 28 -6 50 -12 22 -6 53 -13 69 -16 32 -6 47 -16 25
-17 -8 0 -23 -2 -34 -4 -11 -2 -40 -7 -65 -10 -25 -3 -52 -8 -60 -10 -8 -2
-31 -6 -51 -9 -124 -18 -349 -116 -443 -193 -79 -64 -110 -122 -113 -217 -1
-58 3 -80 23 -123 79 -164 269 -211 426 -106 75 51 142 74 283 99 102 18 245
27 261 16 6 -4 27 -39 48 -78 20 -38 63 -104 96 -145 66 -82 66 -83 -10 -116
-34 -15 -67 -16 -275 -10 -143 5 -311 -45 -416 -124 -125 -93 -195 -204 -236
-374 -3 -11 -6 -59 -7 -106 -6 -198 58 -301 195 -316 90 -10 183 55 209 146 5
18 7 71 5 119 -5 104 13 154 68 197 60 45 106 53 273 48 132 -4 183 0 279 21
84 18 199 87 270 162 50 53 50 54 88 42 50 -15 61 -30 91 -118 22 -65 25 -88
21 -170 -2 -52 -6 -108 -8 -125 -5 -42 11 -123 31 -154 97 -158 296 -194 428
-78 87 77 116 180 110 397 -2 74 -7 151 -11 170 -4 19 -8 39 -8 44 -1 5 30 21
68 36 39 15 89 37 113 49 37 19 46 20 60 9 55 -43 80 -91 87 -170 15 -155 32
-199 106 -262 134 -114 348 -72 426 85 43 86 39 133 -15 167 -30 19 -30 20
-33 83 -1 24 -6 55 -11 68 -7 18 -3 28 16 47 13 14 26 33 29 43 10 41 -76 198
-159 289 l-57 64 23 46 c28 59 65 173 75 230 8 50 16 55 120 77 106 22 264 14
431 -20 127 -26 146 -28 195 -17 72 16 143 72 183 142 26 47 31 64 31 130 0
59 -5 84 -23 117 -51 97 -105 135 -236 168 -172 42 -281 54 -458 51 -87 -2
-160 -1 -163 2 -2 3 26 21 63 40 316 164 597 422 750 690 111 195 171 430 167
654 -3 123 -7 158 -42 348 -8 48 -71 225 -104 295 -179 378 -514 663 -957 814
-118 40 -293 85 -367 95 -22 3 -51 8 -64 10 -13 3 -49 8 -80 11 -31 4 -72 9
-91 12 -36 5 -477 13 -482 8z"/>
<path d="M495 2039 c-90 -45 -135 -118 -131 -216 5 -121 100 -215 218 -214
240 0 316 315 103 428 -46 25 -142 26 -190 2z"/>
<path d="M4300 1294 c-172 -54 -226 -253 -102 -380 44 -46 109 -68 181 -61
197 17 273 267 121 395 -48 41 -145 63 -200 46z"/>
<path d="M772 994 c-114 -57 -158 -184 -102 -298 39 -81 111 -126 202 -126
209 1 304 265 143 398 -70 57 -161 67 -243 26z"/>
</g>
</svg>
